# xmcd
#
# Track frame offsets: 
#        150
#        18955
#        42309
#        75440
#        94634
#        106478
#        126419
#        153628
#        170826
#        195023
#        213137
#        230778
#
# Disc length: 3373 seconds
#
# Revision: 0
# Processed by: cddbd v1.5.2PL0 Copyright (c) Steve Scherf et al.
# Submitted via: ExactAudioCopy v1.2
#
DISCID=950d2b0c
DTITLE=Reckless Jones - Reckless Jones
DYEAR=2017
DGENRE=Blues
TTITLE0=Press On
TTITLE1=Drama Queen
TTITLE2=Wild Moon Highway (Live)
TTITLE3=Another Man
TTITLE4=Goose Grease
TTITLE5=Ruby Please (Live)
TTITLE6=Under the River
TTITLE7=Stand Up
TTITLE8=Waterline (Live)
TTITLE9=Procrastinator
TTITLE10=Don't You Think
TTITLE11=2 AM (feat. Nils Wülker)
EXTD=
EXTT0=
EXTT1=
EXTT2=
EXTT3=
EXTT4=
EXTT5=
EXTT6=
EXTT7=
EXTT8=
EXTT9=
EXTT10=
EXTT11=
PLAYORDER=
